<mxfile host="app.diagrams.net" agent="Mozilla/5.0 (Windows NT 10.0; Win64; x64) AppleWebKit/537.36 (KHTML, like Gecko) Chrome/129.0.0.0 Safari/537.36 Edg/129.0.0.0" version="24.7.17">
  <diagram name="Page-1" id="WZHu8eKt9crjfBHOhLsw">
    <mxGraphModel dx="1050" dy="611" grid="1" gridSize="10" guides="1" tooltips="1" connect="1" arrows="1" fold="1" page="1" pageScale="1" pageWidth="850" pageHeight="1100" math="0" shadow="0">
      <root>
        <mxCell id="0" />
        <mxCell id="1" parent="0" />
        <mxCell id="kUtCs6Tmtpq1YtgtSmsP-3" value="PostgreSQL" style="image;sketch=0;aspect=fixed;html=1;points=[];align=center;fontSize=12;image=img/lib/mscae/Azure_Database_for_PostgreSQL_servers.svg;" vertex="1" parent="1">
          <mxGeometry x="97.85999999999996" y="330" width="45.6" height="60" as="geometry" />
        </mxCell>
        <mxCell id="kUtCs6Tmtpq1YtgtSmsP-4" value="User Identity Manager" style="image;aspect=fixed;html=1;points=[];align=center;fontSize=12;image=img/lib/azure2/identity/Identity_Governance.svg;" vertex="1" parent="1">
          <mxGeometry x="216.14999999999998" y="332" width="56" height="56" as="geometry" />
        </mxCell>
        <mxCell id="kUtCs6Tmtpq1YtgtSmsP-13" style="edgeStyle=orthogonalEdgeStyle;rounded=0;orthogonalLoop=1;jettySize=auto;html=1;" edge="1" parent="1" source="kUtCs6Tmtpq1YtgtSmsP-8" target="kUtCs6Tmtpq1YtgtSmsP-3">
          <mxGeometry relative="1" as="geometry">
            <Array as="points">
              <mxPoint x="185.32" y="280" />
              <mxPoint x="121.32" y="280" />
            </Array>
          </mxGeometry>
        </mxCell>
        <mxCell id="kUtCs6Tmtpq1YtgtSmsP-8" value="Azure App Service&lt;br&gt;(Backend REST API)" style="image;aspect=fixed;html=1;points=[];align=center;fontSize=12;image=img/lib/azure2/compute/App_Services.svg;" vertex="1" parent="1">
          <mxGeometry x="153.01" y="160" width="64" height="64" as="geometry" />
        </mxCell>
        <mxCell id="kUtCs6Tmtpq1YtgtSmsP-9" value="&lt;div&gt;Azure Static Web Apps&lt;/div&gt;(PWA Frontend)" style="image;aspect=fixed;html=1;points=[];align=center;fontSize=12;image=img/lib/azure2/preview/Static_Apps.svg;" vertex="1" parent="1">
          <mxGeometry x="147.23000000000002" y="30" width="75.56" height="60" as="geometry" />
        </mxCell>
        <mxCell id="kUtCs6Tmtpq1YtgtSmsP-16" style="edgeStyle=orthogonalEdgeStyle;rounded=0;orthogonalLoop=1;jettySize=auto;html=1;entryX=0.495;entryY=-0.014;entryDx=0;entryDy=0;entryPerimeter=0;" edge="1" parent="1" source="kUtCs6Tmtpq1YtgtSmsP-8" target="kUtCs6Tmtpq1YtgtSmsP-4">
          <mxGeometry relative="1" as="geometry">
            <Array as="points">
              <mxPoint x="185.32" y="280" />
              <mxPoint x="244.32" y="280" />
            </Array>
          </mxGeometry>
        </mxCell>
        <mxCell id="kUtCs6Tmtpq1YtgtSmsP-21" style="edgeStyle=orthogonalEdgeStyle;rounded=0;orthogonalLoop=1;jettySize=auto;html=1;entryX=0.495;entryY=-0.031;entryDx=0;entryDy=0;entryPerimeter=0;" edge="1" parent="1" source="kUtCs6Tmtpq1YtgtSmsP-9" target="kUtCs6Tmtpq1YtgtSmsP-8">
          <mxGeometry relative="1" as="geometry">
            <mxPoint x="143.09929999999991" y="69.60684000000003" as="targetPoint" />
          </mxGeometry>
        </mxCell>
        <object placeholders="1" c4Name="&#xa;" c4Type="ContainerScopeBoundary" c4Application="TBD" label="&lt;font style=&quot;font-size: 16px&quot;&gt;&lt;b&gt;&lt;div style=&quot;text-align: left&quot;&gt;%c4Name%&lt;/div&gt;&lt;/b&gt;&lt;/font&gt;&lt;div style=&quot;text-align: left&quot;&gt;[%c4Application%]&lt;/div&gt;" id="kUtCs6Tmtpq1YtgtSmsP-22">
          <mxCell style="rounded=1;fontSize=11;whiteSpace=wrap;html=1;dashed=1;arcSize=20;fillColor=none;strokeColor=#666666;fontColor=#333333;labelBackgroundColor=none;align=left;verticalAlign=bottom;labelBorderColor=none;spacingTop=0;spacing=10;dashPattern=8 4;metaEdit=1;rotatable=0;perimeter=rectanglePerimeter;noLabel=0;labelPadding=0;allowArrows=0;connectable=0;expand=0;recursiveResize=0;editable=1;pointerEvents=0;absoluteArcSize=1;points=[[0.25,0,0],[0.5,0,0],[0.75,0,0],[1,0.25,0],[1,0.5,0],[1,0.75,0],[0.75,1,0],[0.5,1,0],[0.25,1,0],[0,0.75,0],[0,0.5,0],[0,0.25,0]];" vertex="1" parent="1">
            <mxGeometry x="40" y="10" width="300" height="440" as="geometry" />
          </mxCell>
        </object>
        <mxCell id="kUtCs6Tmtpq1YtgtSmsP-23" value="Azure Pipeline&lt;div&gt;(CI/CD)&lt;/div&gt;" style="image;sketch=0;aspect=fixed;html=1;points=[];align=center;fontSize=12;image=img/lib/mscae/Azure_Pipelines.svg;" vertex="1" parent="1">
          <mxGeometry x="375" y="120" width="50" height="50" as="geometry" />
        </mxCell>
        <mxCell id="kUtCs6Tmtpq1YtgtSmsP-26" value="Github&lt;div&gt;(Code Version)&lt;/div&gt;" style="verticalLabelPosition=bottom;html=1;verticalAlign=top;align=center;strokeColor=none;fillColor=#00BEF2;shape=mxgraph.azure.github_code;pointerEvents=1;" vertex="1" parent="1">
          <mxGeometry x="375" y="224" width="50" height="50" as="geometry" />
        </mxCell>
      </root>
    </mxGraphModel>
  </diagram>
</mxfile>
